<?xml version="1.0" standalone="no"?>
<svg xmlns="http://www.w3.org/2000/svg" viewBox="0 0 110.092 36" width="110.092" height="36"><g fill="#bba364" color="#bba364" transform="translate(0 6) scale(0.24)"><svg width="86.381" height="100.0" x="0.0" y="0.0" viewBox="0 0 86.381 100"><path fill="currentColor" d="M85.299,20.57c-0.684-0.532-1.556-0.654-2.326-0.319L45.799,36.348c-1.616,0.703-3.639,1.042-5.717,1.042  c-2.897,0.008-5.895-0.667-7.984-1.586c-0.748-0.319-1.372-0.678-1.813-0.998c0.162-0.079,0.346-0.162,0.562-0.246l33.818-14.637  l5.047,2.159v-6.308c0-0.939-0.398-1.829-1.082-2.354c-0.685-0.532-1.56-0.654-2.322-0.319L29.1,29.196  c-1.146,0.466-2.131,1.031-2.967,1.86c-0.819,0.801-1.527,2.124-1.516,3.593c0,0.04,0.011,0.105,0.011,0.105v56.681  c0,0.022-0.007,0.049-0.007,0.075c0,0.019,0.007,0.026,0.007,0.045v0.061h0.008c0.083,2.007,1.078,3.288,2.033,4.134  c3.004,2.648,8.046,4.13,13.407,4.25c2.54,0,5.12-0.402,7.502-1.409l37.182-16.114c0.984-0.402,1.623-1.473,1.623-2.649V22.928  C86.381,21.99,85.976,21.102,85.299,20.57z"></path><path fill="currentColor" d="M61.722,9.794c-0.067-0.849-0.413-1.65-1.045-2.138c-0.68-0.532-1.556-0.654-2.33-0.319L21.176,23.433  c-1.616,0.699-3.643,1.043-5.718,1.043c-2.897,0.004-5.896-0.671-7.985-1.589c-0.742-0.316-1.37-0.675-1.812-0.994  c0.162-0.081,0.35-0.162,0.562-0.246L40.037,7.009l5.04,2.159V2.86c0-0.939-0.408-1.828-1.092-2.354  c-0.678-0.532-1.567-0.656-2.332-0.319L4.479,16.282c-1.146,0.462-2.127,1.028-2.963,1.86C0.693,18.943-0.011,20.266,0,21.737  c0,0.041,0.011,0.103,0.011,0.103v56.683c0,0.022-0.004,0.053-0.004,0.075c0,0.015,0.004,0.022,0.004,0.082v0.075h0.007  c0.081,2.007,1.079,3.288,2.033,4.123c3.004,2.649,8.046,4.085,13.41,4.22c1.447,0,2.901-0.188,4.333-0.458V34.769  c-0.038-2.694,1.039-5.28,2.933-7.142c1.227-1.212,2.724-2.17,4.579-2.909L61.722,9.794z"></path></svg></g><path fill="#0a1256" fill-rule="nonzero" d="M0 14.23L0 14.23L0.77 13.15Q2.52 14.16 4.49 14.16L4.49 14.16Q6 14.16 6.86 13.45Q7.73 12.74 7.73 11.45L7.73 11.45Q7.73 9.24 4.82 8.23L4.82 8.23Q2.35 7.39 1.25 6.36Q0.14 5.33 0.14 3.84L0.14 3.84Q0.14 2.06 1.54 0.98L1.54 0.98Q2.81 0 4.87 0L4.87 0Q7.13 0 8.98 1.25L8.98 1.25L8.18 2.33Q6.70 1.54 4.99 1.54L4.99 1.54Q3.60 1.54 2.78 2.14Q1.97 2.74 1.97 3.77L1.97 3.77Q1.97 5.38 4.46 6.31L4.46 6.31Q7.30 7.39 8.44 8.53Q9.58 9.67 9.58 11.50L9.58 11.50Q9.58 13.58 7.97 14.78L7.97 14.78Q6.65 15.77 4.75 15.77L4.75 15.77Q2.38 15.77 0 14.23ZM18.53 5.90L15.19 5.90L15.17 12.72Q15.17 14.47 16.58 14.47L16.58 14.47Q17.38 14.47 18.14 14.06L18.14 14.06L18.72 14.95Q17.54 15.77 16.25 15.77L16.25 15.77Q14.98 15.77 14.28 14.98Q13.58 14.18 13.58 12.77L13.58 12.77L13.58 5.90L11.93 5.90L11.93 4.58L13.61 4.58L13.61 2.21L15.19 1.39L15.19 4.58L18.53 4.58L18.53 5.90ZM28.80 4.58L30.38 4.58L30.38 15.48L29.14 15.48L28.99 14.23L28.92 14.26Q27.46 15.77 25.37 15.77L25.37 15.77Q23.62 15.77 22.61 14.53Q21.60 13.30 21.60 11.11L21.60 11.11L21.60 4.58L23.21 4.58L23.21 10.82Q23.21 14.35 25.85 14.35L25.85 14.35Q26.66 14.35 27.49 13.94Q28.32 13.54 28.80 12.89L28.80 12.89L28.80 4.58ZM43.18 15.48L41.98 15.48L41.71 14.33Q40.56 15.77 38.38 15.77L38.38 15.77Q36 15.77 34.61 13.99L34.61 13.99Q33.41 12.46 33.41 10.18L33.41 10.18Q33.41 7.30 35.09 5.66L35.09 5.66Q36.48 4.30 38.52 4.30L38.52 4.30Q40.44 4.30 41.59 5.57L41.59 5.57L41.59 0.91L43.18 0.02L43.18 15.48ZM41.59 12.58L41.59 12.58L41.59 7.37Q41.28 6.62 40.46 6.11Q39.65 5.59 38.74 5.59L38.74 5.59Q37.15 5.59 36.14 6.83Q35.14 8.06 35.14 10.01L35.14 10.01Q35.14 12.22 36.24 13.44L36.24 13.44Q37.20 14.45 38.64 14.45L38.64 14.45Q39.60 14.45 40.40 13.93Q41.21 13.42 41.59 12.58ZM47.21 15.46L47.21 15.46L47.21 0.29Q49.15 0 51.12 0L51.12 0Q53.88 0 55.20 1.32L55.20 1.32Q56.23 2.38 56.23 4.10L56.23 4.10Q56.23 5.30 55.50 6.19Q54.77 7.08 53.57 7.37L53.57 7.37L53.57 7.39Q55.03 7.63 55.87 8.72Q56.71 9.82 56.71 11.47L56.71 11.47Q56.71 13.66 55.01 14.78L55.01 14.78Q53.54 15.77 51.12 15.77L51.12 15.77Q49.34 15.77 47.21 15.46ZM48.98 1.58L48.98 1.58L48.98 6.70L51.48 6.70Q52.78 6.70 53.58 6.04Q54.38 5.38 54.38 4.27L54.38 4.27Q54.38 1.42 51.07 1.42L51.07 1.42Q49.80 1.42 48.98 1.58ZM51.48 8.18L48.98 8.18L48.98 14.18Q49.99 14.33 51.34 14.33L51.34 14.33Q54.82 14.33 54.82 11.45L54.82 11.45Q54.82 9.91 53.94 9.05Q53.06 8.18 51.48 8.18L51.48 8.18ZM66.98 4.58L68.57 4.58L68.57 15.48L67.32 15.48L67.18 14.23L67.10 14.26Q65.64 15.77 63.55 15.77L63.55 15.77Q61.80 15.77 60.79 14.53Q59.78 13.30 59.78 11.11L59.78 11.11L59.78 4.58L61.39 4.58L61.39 10.82Q61.39 14.35 64.03 14.35L64.03 14.35Q64.85 14.35 65.68 13.94Q66.50 13.54 66.98 12.89L66.98 12.89L66.98 4.58ZM81.36 15.48L80.16 15.48L79.90 14.33Q78.74 15.77 76.56 15.77L76.56 15.77Q74.18 15.77 72.79 13.99L72.79 13.99Q71.59 12.46 71.59 10.18L71.59 10.18Q71.59 7.30 73.27 5.66L73.27 5.66Q74.66 4.30 76.70 4.30L76.70 4.30Q78.62 4.30 79.78 5.57L79.78 5.57L79.78 0.91L81.36 0.02L81.36 15.48ZM79.78 12.58L79.78 12.58L79.78 7.37Q79.46 6.62 78.65 6.11Q77.83 5.59 76.92 5.59L76.92 5.59Q75.34 5.59 74.33 6.83Q73.32 8.06 73.32 10.01L73.32 10.01Q73.32 12.22 74.42 13.44L74.42 13.44Q75.38 14.45 76.82 14.45L76.82 14.45Q77.78 14.45 78.59 13.93Q79.39 13.42 79.78 12.58Z" transform="translate(28.732, 10.116)"></path></svg>